<?xml version="1.0" encoding="utf-8"?>
<!-- Generator: Adobe Illustrator 28.1.0, SVG Export Plug-In . SVG Version: 6.00 Build 0)  -->
<svg height="45" version="1.1" id="Layer_1" xmlns="http://www.w3.org/2000/svg" xmlns:xlink="http://www.w3.org/1999/xlink" x="0px" y="0px"
	 viewBox="0 0 167 54" style="enable-background:new 0 0 167 54;" xml:space="preserve">
<style type="text/css">
	.st0{fill:#FFFFFF;}
	.st1{fill-rule:evenodd;clip-rule:evenodd;fill:#FFFFFF;}
</style>
<path class="st0" d="M165.9,51.8c-0.5,0-1.1,0-1.6,0c-0.8-1.2-1.6-2.4-2.3-3.6c-0.4,0.4-0.7,0.7-1.1,1.1c0,0.7,0,1.6,0,2.4
	c-0.5,0-0.9,0-1.4,0c0-3.5,0-7,0-10.5c0.4,0,0.9,0,1.4,0c0,2,0,4.1,0,6.1c0,0,0.1,0,0.1,0c1-1,2-1.9,3-2.9c0.5,0,1.1,0,1.7,0
	c-0.9,0.9-1.8,1.8-2.7,2.7c0.1,0.1,0.2,0.2,0.2,0.4c0.8,1.3,1.7,2.6,2.5,3.9C165.7,51.6,165.8,51.7,165.9,51.8
	C165.9,51.8,165.9,51.8,165.9,51.8z"/>
<path class="st0" d="M132.5,51.8c-0.5,0-0.9,0-1.4,0c0-0.1,0-0.3,0-0.4c0-1.3,0-2.5,0-3.8c0-0.3,0-0.6-0.1-0.8
	c-0.1-0.8-0.6-1.2-1.3-1.3c-0.7-0.1-1.3,0.2-1.6,0.9c-0.1,0.3-0.2,0.7-0.2,1.1c0,1.3,0,2.6,0,3.9c0,0.1,0,0.2,0,0.4
	c-0.5,0-0.9,0-1.4,0c0-0.1,0-0.2,0-0.4c0-1.3,0-2.5,0-3.8c0-0.4,0-0.7-0.1-1.1c-0.2-0.9-1.3-1.4-2.1-0.8c-0.7,0.4-0.9,1.1-0.9,1.8
	c0,1.3,0,2.6,0,3.9c0,0.1,0,0.2,0,0.4c-0.5,0-0.9,0-1.4,0c0-2.4,0-4.8,0-7.3c0.4,0,0.8,0,1.2,0c0,0.4,0.1,0.8,0.1,1.3
	c0.5-0.9,1.2-1.4,2.2-1.4c1,0,1.8,0.3,2.2,1.4c0-0.1,0.1-0.1,0.1-0.2c0.6-0.9,1.6-1.4,2.7-1.2c1,0.2,1.7,0.9,1.9,2
	c0,0.3,0.1,0.5,0.1,0.8c0,1.4,0,2.9,0,4.3C132.6,51.6,132.5,51.7,132.5,51.8z"/>
<path class="st0" d="M151.2,51.8c-0.3,0-0.7,0-1.2,0c-0.1-0.3-0.1-0.6-0.2-1c-0.1,0.1-0.2,0.2-0.3,0.3c-0.9,0.9-2.4,1.1-3.5,0.4
	c-0.7-0.5-1-1.2-1-2c0-0.8,0.5-1.4,1.2-1.8c0.6-0.3,1.3-0.4,2-0.4c0.4,0,0.9,0,1.3,0c0.2-1.1-0.4-1.9-1.5-1.9c-0.9,0-1.6,0.3-2.2,1
	c-0.2-0.3-0.4-0.6-0.7-0.8c0.3-0.4,0.7-0.7,1.1-0.9c1-0.5,2.1-0.6,3.1-0.2c0.9,0.3,1.5,1,1.6,2c0.1,0.9,0,1.7,0,2.6
	C151.2,50,151.2,50.9,151.2,51.8z M149.7,48.4c-0.5-0.1-1.9-0.1-2.3,0.1c-0.1,0-0.2,0.1-0.3,0.1c-0.4,0.2-0.6,0.7-0.6,1.2
	c0.1,0.5,0.3,0.8,0.9,1c0.7,0.2,1.4,0,1.9-0.5c0.2-0.2,0.4-0.5,0.4-0.8C149.7,49.1,149.7,48.8,149.7,48.4z"/>
<path class="st0" d="M115.6,49.6c-0.4,1.2-1.2,1.9-2.4,2.2c-0.7,0.2-1.5,0.2-2.2,0c-1.2-0.3-1.9-1.1-2.2-2.3c-0.2-0.9-0.2-1.8,0-2.7
	c0.4-1.4,1.5-2.3,3-2.4c0.9-0.1,1.8,0.1,2.5,0.6c1,0.7,1.4,1.7,1.4,2.8c0,0.1,0,0.2,0,0.4C115.8,48.1,115.7,49.1,115.6,49.6z
	 M114.4,48.1c0-0.5-0.1-1.1-0.3-1.6c-0.4-0.8-1-1.2-1.9-1.2c-0.9,0-1.5,0.4-1.8,1.2c-0.4,1-0.4,2,0,3c0.3,0.8,1,1.2,1.9,1.2
	c0.9,0,1.5-0.4,1.9-1.2C114.3,49.2,114.4,48.6,114.4,48.1z"/>
<path class="st0" d="M104,45.5c0-0.4,0-0.7,0-1c0.4,0,0.8,0,1.2,0c0-0.1,0-0.2,0-0.3c0-0.2,0-0.5,0-0.7c0-1.4,1-2.3,2.4-2.2
	c0.6,0,1.1,0.1,1.5,0.6c-0.2,0.3-0.3,0.6-0.5,0.8c-0.4-0.1-0.7-0.2-1-0.2c-0.5,0-0.9,0.3-1,0.8c-0.1,0.4-0.1,0.8-0.1,1.2
	c0.7,0,1.4,0,2.1,0c0,0.4,0,0.7,0,1c-0.7,0-1.4,0-2.1,0c0,2.1,0,4.2,0,6.3c-0.5,0-0.9,0-1.4,0c0-2.1,0-4.2,0-6.3
	C104.8,45.5,104.4,45.5,104,45.5z"/>
<path class="st0" d="M157.8,49.8c0.3,0.3,0.5,0.5,0.8,0.7c-0.3,0.6-0.9,1-1.5,1.2c-0.8,0.3-1.7,0.3-2.5,0c-1-0.3-1.8-1-2.1-2.1
	c-0.3-1-0.3-2,0-3c0.3-1.3,1.6-2.3,3-2.3c0.8,0,1.6,0.1,2.2,0.5c0.4,0.2,0.6,0.5,0.9,0.9c-0.3,0.2-0.5,0.5-0.8,0.7
	c-0.1-0.1-0.2-0.2-0.2-0.3c-0.5-0.6-1.2-0.9-2-0.8c-0.8,0.1-1.3,0.6-1.5,1.3c-0.3,0.8-0.3,1.7,0,2.6c0.2,0.7,0.7,1.3,1.5,1.4
	c0.8,0.2,1.5-0.1,2.1-0.7C157.6,50,157.7,49.9,157.8,49.8z"/>
<path class="st0" d="M138.7,45.5c-0.3,0.2-0.6,0.4-0.9,0.7c0-0.1-0.1-0.2-0.2-0.2c-0.5-0.5-1.1-0.6-1.7-0.4
	c-0.3,0.1-0.6,0.3-0.6,0.7c0,0.4,0.1,0.6,0.4,0.8c0.3,0.2,0.7,0.3,1.1,0.5c0.4,0.2,0.8,0.4,1.2,0.6c1.4,0.8,1.1,2.6,0.2,3.3
	c-0.7,0.5-1.5,0.7-2.4,0.6c-0.6-0.1-1.2-0.2-1.7-0.7c-0.2-0.2-0.3-0.4-0.5-0.6c0.3-0.2,0.6-0.4,0.9-0.6c0.6,0.6,1.2,0.9,2,0.8
	c0.3,0,0.6-0.2,0.8-0.4c0.4-0.5,0.4-1.2-0.2-1.5c-0.2-0.1-0.5-0.3-0.7-0.4c-0.5-0.2-1-0.4-1.5-0.7c-1.2-0.6-1.4-2.2-0.4-3
	c0.9-0.7,2.9-0.9,4,0.3C138.5,45.2,138.6,45.4,138.7,45.5z"/>
<path class="st0" d="M144.1,45.6c-0.7,0-1.4,0-2.1,0c0,0.1,0,0.2,0,0.3c0,1.2,0,2.3,0,3.5c0,0.2,0,0.4,0.1,0.7
	c0.1,0.5,0.4,0.8,1,0.8c0.2,0,0.4,0,0.6,0c0.2,0,0.4-0.1,0.6-0.1c0,0.3,0.1,0.6,0.1,1c-0.2,0-0.3,0.1-0.5,0.1
	c-0.4,0.1-0.8,0.1-1.2,0.1c-1.1,0-1.9-0.8-2-1.9c-0.1-1.1,0-2.1,0-3.2c0-0.4,0-0.8,0-1.3c-0.4,0-0.9,0-1.3,0c0-0.4,0-0.7,0-1.1
	c0.4,0,0.8,0,1.3,0c0-0.6,0-1.2,0-1.9c0.5,0,0.9,0,1.4,0c0,0.6,0,1.2,0,1.8c0.7,0,1.4,0,2.1,0C144.1,44.8,144.1,45.2,144.1,45.6z"/>
<path class="st0" d="M118.4,51.8c-0.5,0-0.9,0-1.4,0c0-2.4,0-4.9,0-7.3c0.4,0,0.8,0,1.3,0c0,0.4,0,0.9,0.1,1.3
	c0.6-1.1,1.6-1.6,2.8-1.5c0,0.4,0,0.8,0,1.2c-0.1,0-0.1,0-0.2,0c-1.1-0.1-1.8,0.5-2.3,1.5c-0.2,0.5-0.3,1-0.3,1.5c0,1,0,1.9,0,2.9
	C118.4,51.5,118.4,51.6,118.4,51.8z"/>
<path class="st0" d="M98,46.6c0-1.7,0-3.3,0-5c0-0.3,0.1-0.4,0.4-0.4c0.2,0,0.4,0,0.5,0c0.4,0,0.5,0.2,0.5,0.5c0,0.2,0,0.4,0,0.5
	c0,3,0,6,0,9c0,0.5-0.1,0.6-0.6,0.6c-0.8,0-0.8,0-0.8-0.8C98,49.6,98,48.1,98,46.6z"/>
<path class="st0" d="M100.1,46.6c0-1.2,0-2.4,0-3.7c0-0.3,0.1-0.3,0.3-0.3c1,0,1,0,1,1c0,2.1,0,4.2,0,6.3c0,0.5-0.1,0.6-0.6,0.6
	c-0.7,0-0.7,0-0.7-0.7C100.1,48.8,100.1,47.7,100.1,46.6z"/>
<path class="st0" d="M97.4,40.5c0-0.4-0.1-0.6-0.6-0.6c-3.6,0-7.3,0-10.9,0c-0.2,0-0.4,0.1-0.6,0.3c0,4.2,0,8.5,0,12.7
	c0,0.2,0,0.3,0.3,0.3c3.8,0,7.7,0,11.5,0c0.2-0.1,0.3-0.3,0.3-0.6C97.4,48.6,97.4,44.6,97.4,40.5z M89.8,51.1c-0.3,0-0.5,0-0.8,0
	c-0.3,0-0.6,0-0.9,0c-0.1,0-0.2,0-0.2-0.1c0-0.1,0-0.2,0.1-0.2c0.6-0.4,1.2-0.8,1.8-1.2c0.3-0.2,0.3-0.1,0.3,0.2c0,0.3,0,0.7,0,1
	C90.2,51.1,90.1,51.1,89.8,51.1z M93.2,46.8c-1.2,0.8-2.3,1.6-3.5,2.3c-0.5,0.3-0.9,0.6-1.4,1c-0.1,0.1-0.2,0.2-0.3,0.1
	C87.9,50.1,88,50,88,49.9c0-0.6,0-1.1,0-1.7c0-0.2,0-0.3,0.2-0.4c0.5-0.4,1-0.8,1.5-1.2c0.1-0.1,0.3-0.1,0.5-0.1c0.5,0,1,0,1.5,0
	c0.5,0,1,0,1.5,0c0.1,0,0.2,0,0.2,0.1C93.4,46.7,93.3,46.7,93.2,46.8z M94.3,42.4c-1.4,1.1-2.9,2.3-4.3,3.4
	c-0.6,0.4-1.1,0.9-1.7,1.3c-0.1,0.1-0.2,0.2-0.3,0.1C87.9,47.2,88,47.1,88,47c0-1.5,0-3.1,0-4.6c0-0.2,0.1-0.3,0.3-0.3
	c1,0,2,0,2.9,0c1,0,2,0,2.9,0c0.1,0,0.2,0,0.3,0.1C94.5,42.3,94.4,42.4,94.3,42.4z"/>
<g>
	<path class="st0" d="M3.5,43.7H1v5.9h1.3v-2h1.1c1.8,0,2.2-1.1,2.2-2C5.6,44.7,5.2,43.8,3.5,43.7z M2.3,44.8h1c0.9,0,1,0.4,1,0.8
		c0,0.4-0.1,0.8-1,0.8h-1V44.8z"/>
	<path class="st0" d="M11.7,43.6L11.7,43.6L11.7,43.6c-1.9,0.1-2.8,1.1-2.9,3.1c0.1,1.9,1.1,2.9,2.9,3c1.8-0.1,2.8-1.1,2.9-3
		C14.4,44.8,13.5,43.7,11.7,43.6z M13.2,46.7c0,1.2-0.5,1.8-1.5,1.9c-1-0.1-1.5-0.7-1.5-1.8c0.1-1.2,0.6-1.8,1.5-1.9
		C12.6,44.9,13.1,45.5,13.2,46.7z"/>
	<path class="st0" d="M23.6,43.9c-0.4,2-0.7,3-0.8,3.6c-0.1-0.5-0.4-1.6-0.9-3.6l0-0.2h-1.3l0,0.2c-0.4,1.7-0.8,2.9-0.9,3.6
		c-0.1-0.7-0.4-1.9-0.8-3.6l0-0.2h-1.4l1.5,5.9h1.3l0-0.2c0.5-2,0.8-3,1-3.6c0.2,0.6,0.4,1.6,1,3.6l0,0.2h1.2l1.6-5.9h-1.4
		L23.6,43.9z"/>
	<polygon class="st0" points="29.3,47.2 32.3,47.2 32.3,46 29.3,46 29.3,44.9 32.5,44.9 32.5,43.7 27.9,43.7 27.9,49.6 32.6,49.6 
		32.6,48.5 29.3,48.5 	"/>
	<path class="st0" d="M40.9,45.5c-0.1-0.8-0.5-1.7-2.2-1.8H36v5.9h1.3v-2.2h0.9l1.7,2.2h1.7l-1.9-2.4C40.7,46.9,40.9,46.1,40.9,45.5
		z M37.3,44.8h1.3c0.9,0,1,0.4,1,0.7c0,0.2,0,0.3-0.1,0.4c-0.2,0.2-0.4,0.2-0.9,0.2h-1.3V44.8z"/>
	<polygon class="st0" points="45.7,47.2 48.7,47.2 48.7,46 45.7,46 45.7,44.9 48.9,44.9 48.9,43.7 44.4,43.7 44.4,49.6 49,49.6 
		49,48.5 45.7,48.5 	"/>
	<path class="st0" d="M54.5,43.7h-2v5.9h2.1c0,0,0.1,0,0.1,0c0.9,0,1.7-0.2,2.2-0.7c0.5-0.5,0.7-1.3,0.7-2.2
		C57.4,44.7,56.4,43.7,54.5,43.7z M53.7,44.9h0.7c1.1,0,1.7,0.6,1.7,1.8c0,1.3-0.5,1.8-1.7,1.8h-0.7V44.9z"/>
	<path class="st0" d="M69.6,46.5c0.4-0.3,0.6-0.7,0.7-1.3c-0.1-0.7-0.5-1.5-2.1-1.5h-2.6v5.9h2.7c1.8,0,2.2-1,2.2-1.8
		C70.5,47.3,70.3,46.8,69.6,46.5z M67,47.1h1.2c0.8,0,1,0.4,1,0.6c0,0.4-0.1,0.7-0.9,0.7H67V47.1z M67,44.8h1.1
		c0.8,0,0.9,0.4,0.9,0.5c0,0.3-0.1,0.6-0.9,0.6H67V44.8z"/>
	<path class="st0" d="M77.8,43.7l-0.1,0.1c-0.9,1.3-1.3,2.1-1.4,2.2c0,0,0,0.1-0.1,0.1c-0.1-0.1-0.1-0.1-0.1-0.1
		c-0.5-0.8-1-1.5-1.4-2.1l-0.1-0.1h-1.5l2.4,3.5v2.4h1.3v-2.4l2.5-3.5H77.8z"/>
</g>
<g>
	<path class="st1" d="M1.4,20.1l3.9-0.2v-2.6H1.4C1.4,17.3,1.4,20.1,1.4,20.1z M1.4,23v3.1l3.9-0.3v-3L1.4,23z M1.4,7.5l24.3,1.6
		V5.7L1.4,3.7L1.4,7.5z M25.7,11.7v3.2l-19-0.4v-3.7L25.7,11.7z M25.8,17.4v2.4L6.7,20v-2.7L25.8,17.4z M25.7,22.1v2.5l-19,1v-2.8
		L25.7,22.1z"/>
	<path class="st1" d="M18.9,27.9v2.9l6.9-0.7v-2.7L18.9,27.9z"/>
	<path class="st1" d="M33.6,12.9V9.3h3.2V6.4c0-3.6,2-5.3,5.9-5.3c0.7,0,1.4,0.1,2.1,0.3V5c-0.3,0-0.7-0.1-1.1-0.1
		c-2.4,0-2.7,0.9-2.7,3v1.4h3.5v3.6H41v16.6h-4.2V12.9L33.6,12.9z M54.5,25.9c3,0,5-2.5,5-6.5s-2-6.5-5-6.5s-5,2.6-5,6.5
		S51.5,25.9,54.5,25.9 M45,19.4c0-6.4,3.9-10.7,9.5-10.7S64,12.9,64,19.4c0,6.4-3.9,10.7-9.5,10.7S45,25.8,45,19.4 M66.7,9.3h4.3v3
		c1.4-2.3,3.2-3.4,5.5-3.4h0.8v4.8c-0.3,0-0.6,0-0.8,0c-3.4,0-5.5,1.9-5.5,4.7v11.1h-4.3C66.7,29.4,66.7,9.3,66.7,9.3z M79.5,9.3
		h4.2v1.9C85.2,9.7,87,8.9,89,8.9c2.4,0,4.2,1,5.4,3c1.8-2,3.9-3,6.1-3c3.9,0,6.3,2.6,6.3,7v13.4h-4.2V16.7c0-2.6-1.1-3.9-3.2-3.9
		c-2.3,0-4.1,1.9-4.1,4.6v11.9H91V16.7c0-2.6-1.1-3.9-3.2-3.9c-2.3,0-4.1,1.9-4.1,4.6v11.9h-4.2L79.5,9.3z M112.4,23.5
		c1.9,1.9,3.4,2.5,5.7,2.5c2.5,0,3.9-1.1,3.9-2.6c0-1.9-1.6-2-5-2.5c-4.6-0.7-7.2-1.9-7.2-5.7c0-3.6,3.2-6.4,8.3-6.4
		c3.1,0,5.5,0.9,7.8,3.1l-2.6,2.8c-1.5-1.4-3.4-2.1-5.3-2.1c-2.5,0-3.9,0.9-3.9,2.2c0,2,2.5,1.8,6.6,2.6c3.8,0.7,5.6,2.6,5.6,5.7
		c0,3.9-3.3,6.9-8.4,6.9c-3.9,0-6.9-1.2-9.1-3.6L112.4,23.5z"/>
	<path class="st1" d="M129.5,29.4h4.3V9.3h-4.3V29.4z"/>
	<path class="st1" d="M129.5,6.3h4.3V1.5h-4.3V6.3z"/>
	<path class="st1" d="M145.6,25.8c0.4,0,0.8,0,1.1-0.1v3.7c-0.8,0.2-1.5,0.3-2.3,0.3c-5.2,0-5.8-2.2-5.8-6.6V12.9h-3.2V9.3h3.2v-7
		h4.3v7h3.8v3.6H143v10C143.1,24.9,143.4,25.8,145.6,25.8"/>
	<path class="st1" d="M160.8,16.9c-0.2-2.6-2.1-4.3-4.3-4.3c-2.2,0-4.2,1.7-4.6,4.3H160.8z M157.1,29.9c-5.6,0-9.7-4.2-9.7-10.9
		c0-6.1,3.9-10.5,9.2-10.5c5.4,0,9.4,4.3,9.4,11.7v0.2h-13.9c0.3,3.2,2.5,5.1,5.3,5.1c1.9,0,3.8-1.1,4.8-3l3.6,2
		C163.5,28.2,160.6,29.9,157.1,29.9L157.1,29.9z"/>
</g>
</svg>
